<svg class="nav-logo__svg" viewBox="0 0 120 62" version="1.1" xmlns="http://www.w3.org/2000/svg" xmlns:xlink="http://www.w3.org/1999/xlink">
  <g id="Page-1" stroke="none" stroke-width="1" fill="none" fill-rule="evenodd">
    <g id="Desktop-HD-Copy-13" transform="translate(-660.000000, -53.000000)" fill="#ffffff">
      <path d="M704.051687,66.1788035 C701.275855,66.1788035 699.00507,68.4503596 699.00507,71.2254208 L699.00507,96.4600492 C699.00507,99.2358816 701.275855,101.507438 704.051687,101.507438 L709.098304,101.507438 C711.874137,101.507438 714.145693,99.2358816 714.145693,96.4600492 L714.145693,71.2254208 C714.145693,68.4503596 711.874137,66.1788035 709.098304,66.1788035 L704.051687,66.1788035 L704.051687,66.1788035 L704.051687,66.1788035 L704.051687,66.1788035 Z M683.409519,90.7573332 L676.697402,66.1788806 L672.861356,66.1788806 L672.861356,101.506744 L675.38505,101.506744 L675.38505,70.2670647 L682.602214,96.4601264 L684.216823,96.4601264 L691.433987,70.2670647 L691.433987,101.506744 L693.957681,101.506744 L693.957681,66.1788806 L690.121635,66.1788806 L683.409519,90.7573332 L683.409519,90.7573332 L683.409519,90.7573332 L683.409519,90.7573332 Z M717.930077,68.7022663 L724.238927,68.7022663 L724.238927,101.507206 L726.762621,101.507206 L726.762621,68.7022663 L733.0707,68.7022663 L733.0707,66.1785721 L717.930077,66.1785721 L717.930077,68.7022663 L717.930077,68.7022663 L717.930077,68.7022663 L717.930077,68.7022663 Z M736.856627,101.507052 L749.473556,101.507052 L749.473556,98.9833579 L739.380321,98.9833579 L739.380321,84.0956441 L746.950633,84.0956441 L746.950633,81.57195 L739.380321,81.57195 L739.380321,68.7021121 L749.473556,68.7021121 L749.473556,66.1784179 L736.856627,66.1784179 L736.856627,101.507052 L736.856627,101.507052 L736.856627,101.507052 L736.856627,101.507052 Z M757.043867,98.9835892 L757.043867,66.1786492 L754.520173,66.1786492 L754.520173,101.507283 L767.137873,101.507283 L767.137873,98.9835892 L757.043867,98.9835892 L757.043867,98.9835892 L757.043867,98.9835892 L757.043867,98.9835892 Z M711.621998,96.4600492 C711.621998,97.8734105 710.511666,98.9837434 709.098304,98.9837434 L704.051687,98.9837434 C702.689216,98.9837434 701.527993,97.8734105 701.527993,96.4600492 L701.527993,71.2254208 C701.527993,69.8128305 702.689216,68.7024976 704.051687,68.7024976 L709.098304,68.7024976 C710.511666,68.7024976 711.621998,69.8128305 711.621998,71.2254208 L711.621998,96.4600492 L711.621998,96.4600492 L711.621998,96.4600492 L711.621998,96.4600492 Z M660,114.685162 L780,114.685162 L780,53 L660,53 L660,114.685162 L660,114.685162 L660,114.685162 L660,114.685162 Z M777.231878,111.600904 L662.766579,111.600904 L662.766579,56.0842581 L777.231878,56.0842581 L777.231878,111.600904 L777.231878,111.600904 L777.231878,111.600904 L777.231878,111.600904 Z" id="Shape"></path>
    </g>
  </g>
</svg>
